<svg xmlns="http://www.w3.org/2000/svg" xmlns:xlink="http://www.w3.org/1999/xlink" viewBox="0 0 100 100"><defs><style>.cls-1{fill:none;}.cls-2{isolation:isolate;}.cls-3{mix-blend-mode:multiply;fill:url(#radial-gradient);}.cls-4{fill:url(#radial-gradient-2);}.cls-5{fill:#f2f2f2;}.cls-6{clip-path:url(#clip-path);}.cls-7{fill:#ed1c24;}.cls-8{fill:#fff;}.cls-9{fill:#009245;}</style><radialGradient id="radial-gradient" cx="50" cy="50" r="45.14" gradientUnits="userSpaceOnUse"><stop offset="0"/><stop offset="0.37" stop-color="#020202"/><stop offset="0.51" stop-color="#090909"/><stop offset="0.6" stop-color="#141414"/><stop offset="0.68" stop-color="#252525"/><stop offset="0.75" stop-color="#3b3b3b"/><stop offset="0.8" stop-color="#575757"/><stop offset="0.86" stop-color="#777"/><stop offset="0.91" stop-color="#9d9d9d"/><stop offset="0.95" stop-color="#c8c8c8"/><stop offset="0.99" stop-color="#f6f6f6"/><stop offset="1" stop-color="#fff"/></radialGradient><radialGradient id="radial-gradient-2" cx="50" r="45.14" xlink:href="#radial-gradient"/><clipPath id="clip-path"><circle class="cls-1" cx="50" cy="50" r="41.2"/></clipPath></defs><title>flags</title><g class="cls-2"><g id="Layer_1" data-name="Layer 1"><path class="cls-3" d="M92.55,34.93A45.14,45.14,0,1,0,95.14,50,45.14,45.14,0,0,0,92.55,34.93ZM50,93.72A43.72,43.72,0,1,1,93.72,50,43.77,43.77,0,0,1,50,93.72Z"/><circle class="cls-4" cx="50" cy="50" r="37.87"/><path class="cls-5" d="M50,6.28A43.72,43.72,0,1,0,93.72,50,43.77,43.77,0,0,0,50,6.28Zm0,81.59A37.87,37.87,0,1,1,87.87,50,37.91,37.91,0,0,1,50,87.87Z"/><g class="cls-6"><rect class="cls-7" x="-12.82" y="8.12" width="125.64" height="27.92"/><rect class="cls-8" x="-12.82" y="36.04" width="125.64" height="27.92"/><rect class="cls-9" x="-12.82" y="63.96" width="125.64" height="27.92"/></g></g></g></svg>