<svg xmlns="http://www.w3.org/2000/svg" xmlns:xlink="http://www.w3.org/1999/xlink" viewBox="0 0 100 100"><defs><style>.cls-1{fill:none;}.cls-2{isolation:isolate;}.cls-3{mix-blend-mode:multiply;fill:url(#radial-gradient);}.cls-4{fill:url(#radial-gradient-2);}.cls-5{fill:#f2f2f2;}.cls-6{clip-path:url(#clip-path);}.cls-7{fill:#0000bf;}.cls-8{fill:#d50000;}.cls-9{fill:#fff;}.cls-10{fill:#fdfdfe;}.cls-11{fill:#0100be;}.cls-12{fill:#d30102;}.cls-13{fill:#fefefe;}.cls-14{fill:#fcdc01;}</style><radialGradient id="radial-gradient" cx="50" cy="50" r="45.14" gradientUnits="userSpaceOnUse"><stop offset="0"/><stop offset="0.37" stop-color="#020202"/><stop offset="0.51" stop-color="#090909"/><stop offset="0.6" stop-color="#141414"/><stop offset="0.68" stop-color="#252525"/><stop offset="0.75" stop-color="#3b3b3b"/><stop offset="0.8" stop-color="#575757"/><stop offset="0.86" stop-color="#777"/><stop offset="0.91" stop-color="#9d9d9d"/><stop offset="0.95" stop-color="#c8c8c8"/><stop offset="0.99" stop-color="#f6f6f6"/><stop offset="1" stop-color="#fff"/></radialGradient><radialGradient id="radial-gradient-2" r="45.14" xlink:href="#radial-gradient"/><clipPath id="clip-path"><circle class="cls-1" cx="50" cy="50" r="41.2"/></clipPath></defs><title>flags</title><g class="cls-2"><g id="Layer_1" data-name="Layer 1"><path class="cls-3" d="M92.55,34.93A45.14,45.14,0,1,0,95.14,50,45.14,45.14,0,0,0,92.55,34.93ZM50,93.72A43.72,43.72,0,1,1,93.72,50,43.77,43.77,0,0,1,50,93.72Z"/><circle class="cls-4" cx="50" cy="50" r="37.87"/><path class="cls-5" d="M50,6.28A43.72,43.72,0,1,0,93.72,50,43.77,43.77,0,0,0,50,6.28Zm0,81.59A37.87,37.87,0,1,1,87.87,50,37.91,37.91,0,0,1,50,87.87Z"/><g class="cls-6"><path class="cls-7" d="M124,35.24H36.72l-.06,1.08a15.4,15.4,0,0,1-.45,3A13.39,13.39,0,0,1,29.59,48a14.68,14.68,0,0,1-2.84,1.25s-.09,0-.12.06h-.1a6.55,6.55,0,0,0-.74-.27A14.27,14.27,0,0,1,19,43.89a13.47,13.47,0,0,1-2.18-5.14A18.27,18.27,0,0,1,16.48,36c0-.25,0-.51-.05-.76H-1.63l0,27.92H124Z"/><polygon class="cls-8" points="124.03 63.16 -1.6 63.16 -1.57 91.08 117.25 91.08 124.07 91.07 124.03 63.16"/><path class="cls-9" d="M16.27,32.8c-.06-.92-.11-1.84-.17-2.76l-.21-3.2c-.06-.9-.11-1.79-.17-2.69,0,0,0-.09,0-.12v-.36l.78-.32L17,23.1a24.16,24.16,0,0,1,5.14-1.54,25.89,25.89,0,0,1,2.92-.37,1.87,1.87,0,0,0,.53-.05h2s.05,0,.08,0a22,22,0,0,1,2.56.25A24.66,24.66,0,0,1,35,22.64a14.87,14.87,0,0,1,1.7.71,8.17,8.17,0,0,1,.79.38v.19a.67.67,0,0,0,0,.34c-.07.92-.12,1.84-.18,2.76L37,30.23c0,.87-.11,1.73-.16,2.6s-.11,1.61-.16,2.41H124l0-27.92-83.72.1-41.92,0,0,27.77H16.43C16.38,34.43,16.32,33.61,16.27,32.8Z"/><path class="cls-10" d="M30.74,43.06c-.15-.06-.31-.11-.46-.18a2.41,2.41,0,0,0-1.9,0c-.23.09-.46.17-.68.27a2.58,2.58,0,0,1-2.25,0c-.23-.1-.47-.18-.71-.27a2.22,2.22,0,0,0-1.37-.12,8.37,8.37,0,0,0-1,.33,3.09,3.09,0,0,1-1.52.32,1,1,0,0,0-.3,0l.09.12a12.59,12.59,0,0,0,5.82,4.13.22.22,0,0,0,.16,0,13,13,0,0,0,5.16-3.36,7.78,7.78,0,0,0,.72-.89A3,3,0,0,1,30.74,43.06Z"/><path class="cls-11" d="M16.85,29.73l.18,3,.21,3.43a15,15,0,0,0,.76,4,12.86,12.86,0,0,0,5.9,7.18,14.76,14.76,0,0,0,2.56,1.16.37.37,0,0,0,.21,0A13.71,13.71,0,0,0,32.2,45a13.09,13.09,0,0,0,3.23-5.8A16.41,16.41,0,0,0,35.92,36l.3-5c.08-1.36.16-2.73.25-4.09l.21-3.54a14.87,14.87,0,0,0-1.7-.71,24.66,24.66,0,0,0-4.78-1.22,22,22,0,0,0-2.56-.25s-.06,0-.08,0h-2a1.87,1.87,0,0,1-.53.05,25.89,25.89,0,0,0-2.92.37A24.16,24.16,0,0,0,17,23.1l-.54.25.18,3C16.72,27.47,16.79,28.6,16.85,29.73Zm2.5,11.54h0Zm12.47,3a13,13,0,0,1-5.16,3.36.22.22,0,0,1-.16,0,12.59,12.59,0,0,1-5.82-4.13l-.09-.12a1,1,0,0,1,.3,0,3.09,3.09,0,0,0,1.52-.32,8.37,8.37,0,0,1,1-.33,2.22,2.22,0,0,1,1.37.12c.24.09.48.17.71.27a2.58,2.58,0,0,0,2.25,0c.22-.1.45-.18.68-.27a2.41,2.41,0,0,1,1.9,0c.15.07.31.12.46.18a3,3,0,0,0,1.8.3A7.78,7.78,0,0,1,31.82,44.25Zm2-2.93h0a10.2,10.2,0,0,1-.48.93.26.26,0,0,1-.12.09,2.22,2.22,0,0,1-2,.15l-.85-.32a2.48,2.48,0,0,0-2,0c-.28.12-.56.22-.84.32a2.31,2.31,0,0,1-1.75,0c-.26-.11-.54-.2-.8-.32a2.55,2.55,0,0,0-2.11,0,5.87,5.87,0,0,1-1.28.44,2.25,2.25,0,0,1-1.6-.33.19.19,0,0,1-.06-.07c-.17-.29-.33-.59-.47-.89,0,0,0,0,0-.06h0a2.86,2.86,0,0,0,2.06.55,3,3,0,0,0,.73-.2c.3-.13.61-.23.91-.35a2.32,2.32,0,0,1,1.64,0l1.06.4a2.2,2.2,0,0,0,1.67,0l.85-.32a2.45,2.45,0,0,1,2,0c.34.14.68.28,1,.39a2.75,2.75,0,0,0,2.28-.37l.13-.07s0,0,0,0ZM29.17,22.91a.18.18,0,0,0,.19-.12l.28-.48c.1.18.2.34.29.51a.16.16,0,0,0,.15.09h.59c-.11.18-.19.35-.29.5a.17.17,0,0,0,0,.19c.1.15.18.32.29.5H30.1a.16.16,0,0,0-.17.1c-.09.17-.19.33-.29.5l-.29-.5a.16.16,0,0,0-.16-.1h-.57c.1-.18.18-.34.28-.5a.15.15,0,0,0,0-.19c-.1-.16-.18-.32-.29-.5Zm-3.34,4.58c-.09-.13-.16-.28-.24-.41s0-.08.05-.08.31,0,.46,0a.19.19,0,0,0,.21-.12c.08-.15.17-.3.27-.47l.28.49A.16.16,0,0,0,27,27c.16,0,.31,0,.47,0s.09,0,0,.08-.16.3-.25.44a.12.12,0,0,0,0,.16c.1.16.19.32.3.51H27a.14.14,0,0,0-.15.09l-.29.5-.29-.5a.15.15,0,0,0-.16-.09h-.58c.1-.18.18-.33.28-.48A.18.18,0,0,0,25.83,27.49Zm-2.78-4.58a.19.19,0,0,0,.19-.12c.08-.16.18-.31.27-.48.1.17.2.33.29.5a.17.17,0,0,0,.17.1h.57a3.82,3.82,0,0,1-.21.36.34.34,0,0,0,0,.47,2.44,2.44,0,0,1,.21.36H24a.18.18,0,0,0-.17.1c-.09.17-.18.33-.29.5-.07-.13-.16-.26-.22-.39a.3.3,0,0,0-.36-.21,3.16,3.16,0,0,1-.44,0c.1-.18.19-.35.29-.51a.14.14,0,0,0,0-.17c-.1-.16-.19-.32-.29-.51Zm-4.5,15.32,3.9-5.14s0-.08.09-.09l1.58,2,2.46-4.79c.82,1.6,1.63,3.19,2.46,4.79L30.63,33c.2.28.41.55.61.82l3.46,4.56a.22.22,0,0,1,0,.22c-.08.28-.15.55-.22.83a.36.36,0,0,1,0,.09,3.41,3.41,0,0,1-1.87,1.55A2.5,2.5,0,0,1,31,40.89l-.82-.32a2.38,2.38,0,0,0-1.74,0c-.27.11-.55.2-.82.32a2.48,2.48,0,0,1-2,0l-.83-.32a2.4,2.4,0,0,0-1.75,0L22,41a2.31,2.31,0,0,1-2.36-.41,3.54,3.54,0,0,1-.92-1,4,4,0,0,1-.24-.76A.5.5,0,0,1,18.55,38.23Z"/><path class="cls-12" d="M37,30.23,37.25,27c.06-.92.11-1.84.18-2.76a.67.67,0,0,1,0-.34v-.19a8.17,8.17,0,0,0-.79-.38l-.21,3.54c-.09,1.36-.17,2.73-.25,4.09l-.3,5a16.41,16.41,0,0,1-.49,3.19A13.09,13.09,0,0,1,32.2,45a13.71,13.71,0,0,1-5.53,3.47.37.37,0,0,1-.21,0,14.76,14.76,0,0,1-2.56-1.16A12.86,12.86,0,0,1,18,40.13a15,15,0,0,1-.76-4L17,32.72l-.18-3c-.06-1.13-.13-2.26-.2-3.39l-.18-3-.78.32V24c.05,0,0,.08,0,.12.06.9.11,1.79.17,2.69L16.1,30c.06.92.11,1.84.17,2.76s.11,1.63.16,2.44c0,.25,0,.51.05.76a18.27,18.27,0,0,0,.33,2.75A13.47,13.47,0,0,0,19,43.89,14.27,14.27,0,0,0,25.79,49a6.55,6.55,0,0,1,.74.27h.1s.08,0,.12-.06A14.68,14.68,0,0,0,29.59,48a13.39,13.39,0,0,0,6.62-8.64,15.4,15.4,0,0,0,.45-3l.06-1.08c.05-.8.11-1.61.16-2.41S37,31.1,37,30.23Z"/><path class="cls-13" d="M18.68,39.52a3.54,3.54,0,0,0,.92,1A2.31,2.31,0,0,0,22,41l1-.38a2.4,2.4,0,0,1,1.75,0l.83.32a2.48,2.48,0,0,0,2,0c.27-.12.55-.21.82-.32a2.38,2.38,0,0,1,1.74,0l.82.32a2.5,2.5,0,0,0,1.66.16,3.41,3.41,0,0,0,1.87-1.55.36.36,0,0,0,0-.09c.07-.28.14-.55.22-.83a.22.22,0,0,0,0-.22L31.24,33.8c-.2-.27-.41-.54-.61-.82L29,35c-.83-1.6-1.64-3.19-2.46-4.79L24.12,35l-1.58-2c-.05,0-.07,0-.09.09l-3.9,5.14a.5.5,0,0,0-.11.53A4,4,0,0,0,18.68,39.52Z"/><path class="cls-14" d="M25.55,28.19h.58a.15.15,0,0,1,.16.09l.29.5.29-.5a.14.14,0,0,1,.15-.09h.59c-.11-.19-.2-.35-.3-.51a.12.12,0,0,1,0-.16c.09-.14.17-.29.25-.44s0-.08,0-.08-.31,0-.47,0a.16.16,0,0,1-.18-.1l-.28-.49c-.1.17-.19.32-.27.47a.19.19,0,0,1-.21.12c-.15,0-.31,0-.46,0s-.08,0-.05.08.15.28.24.41a.18.18,0,0,1,0,.22C25.73,27.86,25.65,28,25.55,28.19Z"/><path class="cls-14" d="M22.78,23.58c-.1.16-.19.33-.29.51a3.16,3.16,0,0,0,.44,0,.3.3,0,0,1,.36.21c.06.13.15.26.22.39.11-.17.2-.33.29-.5a.18.18,0,0,1,.17-.1h.57a2.44,2.44,0,0,0-.21-.36.34.34,0,0,1,0-.47,3.82,3.82,0,0,0,.21-.36H24a.17.17,0,0,1-.17-.1c-.09-.17-.19-.33-.29-.5-.09.17-.19.32-.27.48a.19.19,0,0,1-.19.12h-.56c.1.19.19.35.29.51A.14.14,0,0,1,22.78,23.58Z"/><path class="cls-14" d="M28.9,23.59c-.1.16-.18.32-.28.5h.57a.16.16,0,0,1,.16.1l.29.5c.1-.17.2-.33.29-.5a.16.16,0,0,1,.17-.1h.57c-.11-.18-.19-.35-.29-.5a.17.17,0,0,1,0-.19c.1-.15.18-.32.29-.5h-.59a.16.16,0,0,1-.15-.09c-.09-.17-.19-.33-.29-.51l-.28.48a.18.18,0,0,1-.19.12h-.56c.11.18.19.34.29.5A.15.15,0,0,1,28.9,23.59Z"/><path class="cls-10" d="M19.35,41.27h0Z"/><path class="cls-10" d="M19.37,41.27h0Z"/><path class="cls-10" d="M33.76,41.31l-.13.07a2.75,2.75,0,0,1-2.28.37c-.36-.11-.7-.25-1-.39a2.45,2.45,0,0,0-2,0l-.85.32a2.2,2.2,0,0,1-1.67,0l-1.06-.4a2.32,2.32,0,0,0-1.64,0c-.3.12-.61.22-.91.35a3,3,0,0,1-.73.2,2.86,2.86,0,0,1-2.06-.55h0s0,0,0,.06c.14.3.3.6.47.89a.19.19,0,0,0,.06.07,2.25,2.25,0,0,0,1.6.33,5.87,5.87,0,0,0,1.28-.44,2.55,2.55,0,0,1,2.11,0c.26.12.54.21.8.32a2.31,2.31,0,0,0,1.75,0c.28-.1.56-.2.84-.32a2.48,2.48,0,0,1,2,0l.85.32a2.22,2.22,0,0,0,2-.15.26.26,0,0,0,.12-.09,10.2,10.2,0,0,0,.48-.93h0v0S33.77,41.3,33.76,41.31Z"/></g></g></g></svg>