<svg xmlns="http://www.w3.org/2000/svg" xmlns:xlink="http://www.w3.org/1999/xlink" viewBox="0 0 100 100"><defs><style>.cls-1{fill:none;}.cls-2{isolation:isolate;}.cls-3{mix-blend-mode:multiply;fill:url(#radial-gradient);}.cls-4{fill:url(#radial-gradient-2);}.cls-5{fill:#f2f2f2;}.cls-6{clip-path:url(#clip-path);}.cls-7{clip-path:url(#clip-path-2);}.cls-8{fill:#006aa7;}.cls-9{fill:#fecc00;}</style><radialGradient id="radial-gradient" cx="50" cy="50" r="45.14" gradientUnits="userSpaceOnUse"><stop offset="0"/><stop offset="0.37" stop-color="#020202"/><stop offset="0.51" stop-color="#090909"/><stop offset="0.6" stop-color="#141414"/><stop offset="0.68" stop-color="#252525"/><stop offset="0.75" stop-color="#3b3b3b"/><stop offset="0.8" stop-color="#575757"/><stop offset="0.86" stop-color="#777"/><stop offset="0.91" stop-color="#9d9d9d"/><stop offset="0.95" stop-color="#c8c8c8"/><stop offset="0.99" stop-color="#f6f6f6"/><stop offset="1" stop-color="#fff"/></radialGradient><radialGradient id="radial-gradient-2" cy="50" r="45.14" xlink:href="#radial-gradient"/><clipPath id="clip-path"><circle class="cls-1" cx="50" cy="50" r="41.2"/></clipPath><clipPath id="clip-path-2"><polygon class="cls-1" points="112.84 71 112.83 63.96 112.8 36.04 112.79 29 112.77 8.12 29.05 8.22 -12.87 8.27 -12.84 29 -12.83 36.04 -12.8 63.96 -12.79 71 -12.77 91.88 106.06 91.88 112.87 91.87 112.84 71"/></clipPath></defs><title>flags</title><g class="cls-2"><g id="Layer_1" data-name="Layer 1"><path class="cls-3" d="M92.55,34.93A45.14,45.14,0,1,0,95.14,50,45.14,45.14,0,0,0,92.55,34.93ZM50,93.72A43.72,43.72,0,1,1,93.72,50,43.77,43.77,0,0,1,50,93.72Z"/><circle class="cls-4" cx="50" cy="50" r="37.87"/><path class="cls-5" d="M50,6.28A43.72,43.72,0,1,0,93.72,50,43.77,43.77,0,0,0,50,6.28Zm0,81.59A37.87,37.87,0,1,1,87.87,50,37.91,37.91,0,0,1,50,87.87Z"/><g class="cls-6"><g class="cls-7"><rect class="cls-8" x="-16.93" y="58.74" width="42.01" height="33.14"/><rect class="cls-8" x="-16.93" y="8.12" width="42.01" height="33.14"/><rect class="cls-8" x="42.56" y="8.12" width="74.36" height="33.14"/><rect class="cls-8" x="42.56" y="58.74" width="74.36" height="33.14"/><polygon class="cls-9" points="116.93 41.26 116.93 58.74 42.56 58.74 42.56 91.88 25.08 91.88 25.08 58.74 -16.93 58.74 -16.93 41.26 25.08 41.26 25.08 8.12 42.56 8.12 42.56 41.26 116.93 41.26"/></g></g></g></g></svg>