<svg xmlns="http://www.w3.org/2000/svg" xmlns:xlink="http://www.w3.org/1999/xlink" viewBox="0 0 100 100"><defs><style>.cls-1{fill:none;}.cls-2{isolation:isolate;}.cls-3{mix-blend-mode:multiply;fill:url(#radial-gradient);}.cls-4{fill:url(#radial-gradient-2);}.cls-5{fill:#f2f2f2;}.cls-6{clip-path:url(#clip-path);}.cls-7{fill:#fff;}.cls-8{fill:#dc0032;}.cls-9{fill:#0d1e7e;}</style><radialGradient id="radial-gradient" cx="50" cy="50" r="45.14" gradientUnits="userSpaceOnUse"><stop offset="0"/><stop offset="0.37" stop-color="#020202"/><stop offset="0.51" stop-color="#090909"/><stop offset="0.6" stop-color="#141414"/><stop offset="0.68" stop-color="#252525"/><stop offset="0.75" stop-color="#3b3b3b"/><stop offset="0.8" stop-color="#575757"/><stop offset="0.86" stop-color="#777"/><stop offset="0.91" stop-color="#9d9d9d"/><stop offset="0.95" stop-color="#c8c8c8"/><stop offset="0.99" stop-color="#f6f6f6"/><stop offset="1" stop-color="#fff"/></radialGradient><radialGradient id="radial-gradient-2" cx="50" r="45.14" gradientTransform="translate(8.65 -7.36) rotate(9.22)" xlink:href="#radial-gradient"/><clipPath id="clip-path"><circle class="cls-1" cx="50" cy="50" r="41.2"/></clipPath></defs><title>flags</title><g class="cls-2"><g id="Layer_1" data-name="Layer 1"><path class="cls-3" d="M92.55,34.93A45.14,45.14,0,1,0,95.14,50,45.14,45.14,0,0,0,92.55,34.93ZM50,93.72A43.72,43.72,0,1,1,93.72,50,43.77,43.77,0,0,1,50,93.72Z"/><circle class="cls-4" cx="50" cy="50" r="37.87" transform="translate(-7.36 8.65) rotate(-9.22)"/><path class="cls-5" d="M50,6.28A43.72,43.72,0,1,0,93.72,50,43.77,43.77,0,0,0,50,6.28Zm0,81.59A37.87,37.87,0,1,1,87.87,50,37.91,37.91,0,0,1,50,87.87Z"/><g class="cls-6"><polygon class="cls-7" points="111.97 8.12 61.69 36.28 61.69 8.12 57.25 8.12 57.25 43.38 112.82 43.38 112.82 38.4 87.69 38.4 112.82 24.25 112.82 16.87 74.35 38.4 64.43 38.4 112.82 11.31 112.82 8.12 111.97 8.12"/><polygon class="cls-7" points="43.94 8.12 39.5 8.12 39.5 36.28 -10.58 8.12 -12.82 8.12 -12.82 13.98 30.64 38.4 20.71 38.4 -12.82 19.55 -12.82 23.57 13.5 38.4 -12.82 38.4 -12.82 43.38 43.94 43.38 43.94 8.12"/><polygon class="cls-7" points="-12.82 58.31 -12.82 63.28 13.5 63.28 -12.82 78.09 -12.82 86.36 28.39 63.28 38.32 63.28 -12.73 91.88 -7.74 91.88 39.5 65.41 39.5 91.88 43.94 91.88 43.94 58.31 -12.82 58.31"/><polygon class="cls-7" points="57.25 91.88 61.69 91.88 61.69 65.41 109.08 91.88 112.82 91.88 112.82 86.06 72.11 63.28 82.04 63.28 112.82 80.5 112.82 77.28 87.69 63.28 112.82 63.28 112.82 58.31 57.25 58.31 57.25 91.88"/><polygon class="cls-8" points="74.35 38.4 112.82 16.87 112.82 11.31 64.43 38.4 74.35 38.4"/><polygon class="cls-8" points="72.11 63.28 112.82 86.06 112.82 80.5 82.04 63.28 72.11 63.28"/><polygon class="cls-8" points="30.64 38.4 -12.82 13.98 -12.82 19.55 20.71 38.4 30.64 38.4"/><polygon class="cls-8" points="28.39 63.28 -12.82 86.36 -12.82 91.88 -12.73 91.88 38.32 63.28 28.39 63.28"/><polygon class="cls-9" points="111.97 8.12 61.69 8.12 61.69 36.28 111.97 8.12"/><polygon class="cls-9" points="39.5 8.12 -10.58 8.12 39.5 36.28 39.5 8.12"/><polygon class="cls-9" points="112.82 38.4 112.82 24.25 87.69 38.4 112.82 38.4"/><polygon class="cls-9" points="112.82 77.28 112.82 63.28 87.69 63.28 112.82 77.28"/><polygon class="cls-9" points="-7.74 91.88 39.5 91.88 39.5 65.41 -7.74 91.88"/><polygon class="cls-9" points="61.69 91.88 109.08 91.88 61.69 65.41 61.69 91.88"/><polygon class="cls-9" points="-12.82 63.28 -12.82 78.09 13.5 63.28 -12.82 63.28"/><polygon class="cls-9" points="-12.82 23.57 -12.82 38.4 13.5 38.4 -12.82 23.57"/><polygon class="cls-8" points="57.25 8.12 43.94 8.12 43.94 43.38 -12.82 43.38 -12.82 58.31 43.94 58.31 43.94 91.88 57.25 91.88 57.25 58.31 112.82 58.31 112.82 43.38 57.25 43.38 57.25 8.12"/></g></g></g></svg>